<?xml version="1.0" encoding="utf-8"?>
<!-- Generator: Adobe Illustrator 26.1.0, SVG Export Plug-In . SVG Version: 6.00 Build 0)  -->
<svg version="1.1" id="Слой_1" xmlns="http://www.w3.org/2000/svg" xmlns:xlink="http://www.w3.org/1999/xlink" x="0px" y="0px"
	 viewBox="0 0 65.46 65.46" style="enable-background:new 0 0 65.46 65.46;" xml:space="preserve">
<style type="text/css">
	.st0{display:none;fill:#161616;}
	.st1{display:none;fill:#FFFFFF;}
	.st2{fill:#FFFFFF;}
</style>
<rect x="38.98" y="-82.6" class="st0" width="110" height="110"/>
<rect x="-81.94" y="-82.6" class="st0" width="110" height="110"/>
<rect x="-81.94" y="38.32" class="st0" width="110" height="110"/>
<rect x="38.98" y="38.32" class="st0" width="110" height="110"/>
<rect x="24.67" y="-82.99" transform="matrix(0.7071 0.7071 -0.7071 0.7071 32.2606 -12.8695)" class="st1" width="14" height="231"/>
<rect x="24.67" y="-82.29" transform="matrix(0.7071 -0.7071 0.7071 0.7071 -14.2116 32.1189)" class="st1" width="14" height="231"/>
<g>
	
		<ellipse transform="matrix(0.233 -0.9725 0.9725 0.233 -6.7254 56.9313)" class="st2" cx="32.73" cy="32.73" rx="32.73" ry="32.73"/>
</g>
<path id="XMLID_1420_" d="M28.91,49h6.1V33.74h4.25l0.45-5.11h-4.71c0,0,0-1.91,0-2.91c0-1.2,0.24-1.68,1.41-1.68
	c0.94,0,3.3,0,3.3,0v-5.3c0,0-3.48,0-4.22,0c-4.54,0-6.58,2-6.58,5.82c0,3.33,0,4.08,0,4.08h-3.17v5.18h3.17V49z"/>
</svg>
