<?xml version="1.0" encoding="utf-8"?>
<!-- Generator: Adobe Illustrator 26.1.0, SVG Export Plug-In . SVG Version: 6.00 Build 0)  -->
<svg version="1.1" id="Слой_1" xmlns="http://www.w3.org/2000/svg" xmlns:xlink="http://www.w3.org/1999/xlink" x="0px" y="0px"
	 viewBox="0 0 65.46 65.46" style="enable-background:new 0 0 65.46 65.46;" xml:space="preserve">
<style type="text/css">
	.st0{display:none;fill:#161616;}
	.st1{display:none;fill:#FFFFFF;}
	.st2{fill:#FFFFFF;}
</style>
<rect x="38.98" y="-82.6" class="st0" width="110" height="110"/>
<rect x="-81.94" y="-82.6" class="st0" width="110" height="110"/>
<rect x="-81.94" y="38.32" class="st0" width="110" height="110"/>
<rect x="38.98" y="38.32" class="st0" width="110" height="110"/>
<rect x="24.67" y="-82.99" transform="matrix(0.7071 0.7071 -0.7071 0.7071 32.2606 -12.8695)" class="st1" width="14" height="231"/>
<rect x="24.67" y="-82.29" transform="matrix(0.7071 -0.7071 0.7071 0.7071 -14.2116 32.1189)" class="st1" width="14" height="231"/>
<g>
	
		<ellipse transform="matrix(0.233 -0.9725 0.9725 0.233 -6.7254 56.9313)" class="st2" cx="32.73" cy="32.73" rx="32.73" ry="32.73"/>
</g>
<g id="XMLID_1347_">
	<path id="XMLID_1352_" d="M32.8,21.5c3.82,0,4.27,0.01,5.78,0.08c1.4,0.06,2.15,0.3,2.66,0.49c0.67,0.26,1.14,0.57,1.65,1.07
		c0.5,0.5,0.81,0.98,1.07,1.65c0.2,0.5,0.43,1.26,0.49,2.66c0.07,1.51,0.08,1.96,0.08,5.78c0,3.82-0.01,4.28-0.08,5.78
		c-0.06,1.4-0.3,2.15-0.49,2.66c-0.26,0.67-0.57,1.15-1.07,1.65c-0.5,0.5-0.98,0.81-1.65,1.07c-0.5,0.2-1.26,0.43-2.66,0.49
		c-1.51,0.07-1.96,0.08-5.78,0.08c-3.82,0-4.28-0.01-5.78-0.08c-1.4-0.06-2.15-0.3-2.66-0.49c-0.67-0.26-1.15-0.57-1.65-1.07
		c-0.5-0.5-0.81-0.98-1.07-1.65c-0.2-0.5-0.43-1.26-0.49-2.66c-0.07-1.51-0.08-1.96-0.08-5.78c0-3.82,0.01-4.27,0.08-5.78
		c0.06-1.4,0.3-2.15,0.49-2.66c0.26-0.67,0.57-1.14,1.07-1.65c0.5-0.5,0.98-0.81,1.65-1.07c0.5-0.2,1.26-0.43,2.66-0.49
		C28.52,21.52,28.98,21.5,32.8,21.5 M32.8,18.92c-3.89,0-4.38,0.02-5.9,0.09c-1.52,0.07-2.56,0.31-3.47,0.67
		c-0.94,0.37-1.74,0.86-2.54,1.65c-0.8,0.8-1.29,1.59-1.65,2.54c-0.35,0.91-0.6,1.95-0.67,3.47c-0.07,1.53-0.09,2.01-0.09,5.9
		c0,3.89,0.02,4.38,0.09,5.9c0.07,1.52,0.31,2.56,0.67,3.47c0.37,0.94,0.85,1.74,1.65,2.54c0.8,0.8,1.59,1.29,2.54,1.65
		c0.91,0.35,1.95,0.6,3.47,0.67c1.53,0.07,2.01,0.09,5.9,0.09c3.89,0,4.37-0.02,5.9-0.09c1.52-0.07,2.56-0.31,3.47-0.67
		c0.94-0.37,1.74-0.86,2.54-1.65c0.8-0.8,1.29-1.59,1.65-2.54c0.35-0.91,0.6-1.95,0.67-3.47c0.07-1.53,0.09-2.01,0.09-5.9
		c0-3.89-0.02-4.37-0.09-5.9c-0.07-1.52-0.31-2.56-0.67-3.47c-0.37-0.94-0.86-1.74-1.65-2.54c-0.8-0.8-1.59-1.29-2.54-1.65
		c-0.91-0.35-1.95-0.6-3.47-0.67C37.17,18.94,36.69,18.92,32.8,18.92"/>
	<path id="XMLID_1349_" d="M32.8,25.89c-4.06,0-7.35,3.29-7.35,7.35c0,4.06,3.29,7.35,7.35,7.35c4.06,0,7.35-3.29,7.35-7.35
		C40.15,29.18,36.86,25.89,32.8,25.89 M32.8,38.01c-2.64,0-4.77-2.14-4.77-4.77c0-2.64,2.14-4.77,4.77-4.77
		c2.64,0,4.77,2.14,4.77,4.77C37.57,35.87,35.43,38.01,32.8,38.01"/>
	<path id="XMLID_1348_" d="M42.16,25.6c0,0.95-0.77,1.72-1.72,1.72c-0.95,0-1.72-0.77-1.72-1.72c0-0.95,0.77-1.72,1.72-1.72
		C41.39,23.88,42.16,24.65,42.16,25.6"/>
</g>
</svg>
