<?xml version="1.0" encoding="utf-8"?>
<!-- Generator: Adobe Illustrator 26.1.0, SVG Export Plug-In . SVG Version: 6.00 Build 0)  -->
<svg version="1.1" id="Слой_1" xmlns="http://www.w3.org/2000/svg" xmlns:xlink="http://www.w3.org/1999/xlink" x="0px" y="0px"
	 viewBox="0 0 37.04 46.93" style="enable-background:new 0 0 37.04 46.93;" xml:space="preserve">
<style type="text/css">
	.st0{display:none;fill:#161616;}
	.st1{display:none;fill:#FFFFFF;}
	.st2{display:none;}
	.st3{display:inline;}
	.st4{fill:#FFFFFF;}
</style>
<rect x="25.41" y="-92.03" class="st0" width="110" height="110"/>
<rect x="-95.5" y="-92.03" class="st0" width="110" height="110"/>
<rect x="-95.5" y="28.88" class="st0" width="110" height="110"/>
<rect x="25.41" y="28.88" class="st0" width="110" height="110"/>
<rect x="11.1" y="-92.43" transform="matrix(0.7071 0.7071 -0.7071 0.7071 21.6157 -6.0413)" class="st1" width="14" height="231"/>
<rect x="11.1" y="-91.72" transform="matrix(0.7071 -0.7071 0.7071 0.7071 -11.5128 19.7636)" class="st1" width="14" height="231"/>
<path class="st2" d="M32.91,10.5c-0.31-0.69-0.96-1.08-1.83-1.08c-0.63,0-1.19,0.2-1.26,0.23c-0.19,0.07-18.59,7.11-26.14,10.2
	c-0.66,0.27-1.09,0.65-1.27,1.14c-0.28,0.75,0.25,1.52,0.75,1.74c1.88,0.83,5.78,1.97,7,2.32c0.4,1.34,1.81,6.01,2.47,8.02
	c0.17,0.52,0.68,0.83,1.35,0.83c0.1,0,0.16-0.01,0.16-0.01c0.18-0.02,0.34-0.11,0.45-0.24c0.1-0.11,0.16-0.25,0.17-0.4l0.39-5.65
	c0.74,0.55,1.81,1.36,3,2.25c2.35,1.76,5.15,3.84,6.71,4.97c0.56,0.4,1.09,0.6,1.6,0.6c1.13,0,1.78-0.97,2-1.8
	c1.3-5.05,3.2-14.59,4.34-20.29l0.25-1.25C33.2,11.3,33.06,10.84,32.91,10.5z M13.85,26.23l-0.35,5.01
	c-0.85-2.72-2.11-6.91-2.12-6.96c0-0.01-0.02-0.02-0.02-0.04l0-0.03l14.39-9.37c0,0,0.98-0.67,1.35-0.75
	c0.5-0.11,0.62,0.09,0.53,0.21c-0.35,0.47-2,1.89-2,1.89l-11.47,9.5l0,0.01C13.98,25.82,13.86,26.01,13.85,26.23z"/>
<g id="XMLID_1434_" class="st2">
	<g id="XMLID_1436_" class="st3">
		<rect id="XMLID_1438_" x="8.96" y="18.5" width="5.12" height="16.54"/>
		<path id="XMLID_1437_" d="M11.49,16.33c1.67,0,3.03-1.37,3.03-3.05c0-1.69-1.36-3.05-3.03-3.05c-1.67,0-3.03,1.37-3.03,3.05
			C8.46,14.96,9.82,16.33,11.49,16.33z"/>
	</g>
	<path id="XMLID_1435_" class="st3" d="M22.26,26.35c0-2.33,1.07-3.71,3.12-3.71c1.88,0,2.79,1.33,2.79,3.71c0,2.38,0,8.68,0,8.68
		h5.1c0,0,0-6.04,0-10.47c0-4.43-2.51-6.57-6.02-6.57c-3.51,0-4.99,2.73-4.99,2.73V18.5h-4.91v16.54h4.91
		C22.26,35.04,22.26,28.9,22.26,26.35z"/>
</g>
<g>
	<path class="st4" d="M15.97,46.79c1.88,0.58,4.05-0.73,5.57-2.21c2.61-2.54,4.25-4.01,7.7-4.86c2.59-0.64,4.77,0.67,6.65-2.26
		c3.8-5.94-2.82-7.24-7.15-8.78c-3.38-1.21-11.89-10.76-13.45-2.53c-0.5,2.61,0.76,4.86,1.17,7.37c0.55,3.36-1.2,5.28-2.41,8.23
		C13.16,43.94,13.14,45.92,15.97,46.79z"/>
	<path class="st4" d="M30.21,23.89c-0.16-0.05-0.31-0.11-0.46-0.19c-2.24-1.1-2.57-7.15-2.21-9.3c0.11-0.63,0.31-1.32,0.86-1.71
		c0.8-0.57,1.85-0.19,2.58,0.32c2.29,1.57,3.73,4.18,3.89,7.02C35.01,22.71,32.56,24.66,30.21,23.89z"/>
	<path class="st4" d="M16.16,6.21c4.34,1.48,7.52,5.87,7.57,10.45c0.01,0.59-0.04,1.21-0.34,1.72c-0.73,1.26-2.69,1.27-3.85,0.39
		c-1.16-0.88-1.73-2.32-2.24-3.69c-0.83-2.21-1.65-4.41-2.48-6.62c-0.27-0.72-0.53-1.57-0.12-2.23c0.41-0.66,1.75-0.47,1.63,0.3
		L16.16,6.21z"/>
	<path class="st4" d="M11.74,18.81c-0.54-0.74-1.26-1.33-1.79-2.08c-1.15-1.63-1.3-3.87-2.35-5.58c-0.34-0.56-0.94-1.1-1.64-0.87
		c-0.82,0.27-1.08,1.32-1.15,2.14c-0.32,3.43-0.63,6.99,0.57,10.01c0.52,1.29,1.37,2.5,2.7,2.97
		C12.64,27.01,13.63,21.38,11.74,18.81z"/>
	<path class="st4" d="M4.96,34.97c-1.25-0.99-2.54-2.03-3.27-3.45c-0.73-1.42-0.73-3.35,0.43-4.45c0.23-0.22,0.52-0.4,0.84-0.38
		c0.33,0.03,0.59,0.27,0.82,0.5c1.15,1.15,2.23,2.37,3.25,3.64c0.74,0.92,3.05,3.71,2.42,5.04C8.59,37.68,6.05,35.84,4.96,34.97z"/>
	<path class="st4" d="M0.58,26.34c-0.65-1.75-0.76-3.7-0.3-5.51c0.48,0.98,0.96,1.96,1.44,2.94c0.12,0.25,0.25,0.52,0.26,0.8
		C1.99,25.38,0.58,26.34,0.58,26.34z"/>
	<path class="st4" d="M15.19,4.29c-1.62-2-3.85-3.52-6.31-4.29c1.3,1.35,2.6,2.7,3.9,4.05c0.18,0.19,0.38,0.39,0.64,0.44
		C14.1,4.62,15.19,4.29,15.19,4.29z"/>
	<path class="st4" d="M23.65,7.03c0.94,1.28,1.88,2.56,2.82,3.85c0.1,0.13,0.21,0.27,0.36,0.33c0.55,0.2,1.18-0.79,1.6-0.38
		C28.43,10.82,25.62,7.64,23.65,7.03z"/>
	<path class="st4" d="M4.99,9.31C4.46,7.58,4.29,5.75,4.5,3.96c0.65,1.39,1.29,2.78,1.94,4.16C6.5,8.25,6.56,8.39,6.57,8.53
		C6.6,8.94,6.2,9.28,5.79,9.34C5.38,9.39,4.99,9.31,4.99,9.31z"/>
</g>
</svg>
