<?xml version="1.0" encoding="utf-8"?>
<!-- Generator: Adobe Illustrator 26.1.0, SVG Export Plug-In . SVG Version: 6.00 Build 0)  -->
<svg version="1.1" id="Слой_1" xmlns="http://www.w3.org/2000/svg" xmlns:xlink="http://www.w3.org/1999/xlink" x="0px" y="0px"
	 viewBox="0 0 65.46 65.46" style="enable-background:new 0 0 65.46 65.46;" xml:space="preserve">
<style type="text/css">
	.st0{display:none;fill:#161616;}
	.st1{display:none;fill:#FFFFFF;}
	.st2{fill:#FFFFFF;}
	.st3{display:none;}
	.st4{display:inline;}
</style>
<rect x="38.98" y="-82.6" class="st0" width="110" height="110"/>
<rect x="-81.94" y="-82.6" class="st0" width="110" height="110"/>
<rect x="-81.94" y="38.32" class="st0" width="110" height="110"/>
<rect x="38.98" y="38.32" class="st0" width="110" height="110"/>
<rect x="24.67" y="-82.99" transform="matrix(0.7071 0.7071 -0.7071 0.7071 32.2606 -12.8695)" class="st1" width="14" height="231"/>
<rect x="24.67" y="-82.29" transform="matrix(0.7071 -0.7071 0.7071 0.7071 -14.2116 32.1189)" class="st1" width="14" height="231"/>
<g>
	
		<ellipse transform="matrix(0.233 -0.9725 0.9725 0.233 -6.7254 56.9313)" class="st2" cx="32.73" cy="32.73" rx="32.73" ry="32.73"/>
</g>
<path class="st3" d="M46.48,19.94c-0.31-0.69-0.96-1.08-1.83-1.08c-0.63,0-1.19,0.2-1.26,0.23c-0.19,0.07-18.59,7.11-26.14,10.2
	c-0.66,0.27-1.09,0.65-1.27,1.14c-0.28,0.75,0.25,1.52,0.75,1.74c1.88,0.83,5.78,1.97,7,2.32c0.4,1.34,1.81,6.01,2.47,8.02
	c0.17,0.52,0.68,0.83,1.35,0.83c0.1,0,0.16-0.01,0.16-0.01c0.18-0.02,0.34-0.11,0.45-0.24c0.1-0.11,0.16-0.25,0.17-0.4l0.39-5.65
	c0.74,0.55,1.81,1.36,3,2.25c2.35,1.76,5.15,3.84,6.71,4.97c0.56,0.4,1.09,0.6,1.6,0.6c1.13,0,1.78-0.97,2-1.8
	c1.3-5.05,3.2-14.59,4.34-20.29l0.25-1.25C46.76,20.73,46.63,20.28,46.48,19.94z M27.41,35.67l-0.35,5.02
	c-0.85-2.73-2.11-6.91-2.12-6.96c0-0.01-0.02-0.02-0.02-0.04l0-0.03l14.39-9.37c0,0,0.98-0.67,1.35-0.75
	c0.5-0.11,0.62,0.09,0.53,0.21c-0.35,0.47-2,1.89-2,1.89l-11.47,9.5l0,0.01C27.55,35.26,27.43,35.45,27.41,35.67z"/>
<g id="XMLID_1434_" class="st3">
	<g id="XMLID_1436_" class="st4">
		<rect id="XMLID_1438_" x="22.52" y="27.93" width="5.12" height="16.54"/>
		<path id="XMLID_1437_" d="M25.06,25.76c1.67,0,3.03-1.37,3.03-3.05c0-1.69-1.36-3.05-3.03-3.05c-1.67,0-3.03,1.37-3.03,3.05
			C22.03,24.4,23.38,25.76,25.06,25.76z"/>
	</g>
	<path id="XMLID_1435_" class="st4" d="M35.83,35.79c0-2.33,1.07-3.71,3.12-3.71c1.88,0,2.79,1.33,2.79,3.71c0,2.38,0,8.68,0,8.68
		h5.1c0,0,0-6.04,0-10.47c0-4.43-2.51-6.57-6.02-6.57c-3.51,0-4.99,2.73-4.99,2.73v-2.23h-4.91v16.54h4.91
		C35.83,44.47,35.83,38.34,35.83,35.79z"/>
</g>
<path id="XMLID_1450_" d="M19.41,42.88c2.63,1.69,5.76,2.67,9.12,2.67c11.04,0,17.28-9.33,16.9-17.69c1.16-0.84,2.17-1.89,2.97-3.08
	c-1.07,0.47-2.21,0.79-3.42,0.94c1.23-0.73,2.17-1.9,2.61-3.29c-1.15,0.68-2.42,1.18-3.78,1.44c-1.09-1.16-2.63-1.88-4.34-1.88
	c-3.84,0-6.66,3.58-5.79,7.3c-4.94-0.25-9.33-2.62-12.26-6.21c-1.56,2.67-0.81,6.17,1.84,7.94c-0.98-0.03-1.89-0.3-2.69-0.74
	c-0.06,2.76,1.91,5.33,4.77,5.91c-0.84,0.23-1.75,0.28-2.68,0.1c0.76,2.36,2.95,4.08,5.55,4.13C25.71,42.38,22.56,43.25,19.41,42.88
	z"/>
</svg>
