<?xml version="1.0" encoding="utf-8"?>
<!-- Generator: Adobe Illustrator 26.1.0, SVG Export Plug-In . SVG Version: 6.00 Build 0)  -->
<svg version="1.1" id="Слой_1" xmlns="http://www.w3.org/2000/svg" xmlns:xlink="http://www.w3.org/1999/xlink" x="0px" y="0px"
	 viewBox="0 0 65.46 65.46" style="enable-background:new 0 0 65.46 65.46;" xml:space="preserve">
<style type="text/css">
	.st0{display:none;fill:#161616;}
	.st1{display:none;fill:#FFFFFF;}
	.st2{fill:#FFFFFF;}
	.st3{display:none;}
	.st4{display:inline;}
</style>
<rect x="38.98" y="-82.6" class="st0" width="110" height="110"/>
<rect x="-81.94" y="-82.6" class="st0" width="110" height="110"/>
<rect x="-81.94" y="38.32" class="st0" width="110" height="110"/>
<rect x="38.98" y="38.32" class="st0" width="110" height="110"/>
<rect x="24.67" y="-82.99" transform="matrix(0.7071 0.7071 -0.7071 0.7071 32.2606 -12.8695)" class="st1" width="14" height="231"/>
<rect x="24.67" y="-82.29" transform="matrix(0.7071 -0.7071 0.7071 0.7071 -14.2116 32.1189)" class="st1" width="14" height="231"/>
<g>
	
		<ellipse transform="matrix(0.233 -0.9725 0.9725 0.233 -6.7254 56.9313)" class="st2" cx="32.73" cy="32.73" rx="32.73" ry="32.73"/>
</g>
<path class="st3" d="M46.48,19.94c-0.31-0.69-0.96-1.08-1.83-1.08c-0.63,0-1.19,0.2-1.26,0.23c-0.19,0.07-18.59,7.11-26.14,10.2
	c-0.66,0.27-1.09,0.65-1.27,1.14c-0.28,0.75,0.25,1.52,0.75,1.74c1.88,0.83,5.78,1.97,7,2.32c0.4,1.34,1.81,6.01,2.47,8.02
	c0.17,0.52,0.68,0.83,1.35,0.83c0.1,0,0.16-0.01,0.16-0.01c0.18-0.02,0.34-0.11,0.45-0.24c0.1-0.11,0.16-0.25,0.17-0.4l0.39-5.65
	c0.74,0.55,1.81,1.36,3,2.25c2.35,1.76,5.15,3.84,6.71,4.97c0.56,0.4,1.09,0.6,1.6,0.6c1.13,0,1.78-0.97,2-1.8
	c1.3-5.05,3.2-14.59,4.34-20.29l0.25-1.25C46.76,20.73,46.63,20.28,46.48,19.94z M27.41,35.67l-0.35,5.02
	c-0.85-2.73-2.11-6.91-2.12-6.96c0-0.01-0.02-0.02-0.02-0.04l0-0.03l14.39-9.37c0,0,0.98-0.67,1.35-0.75
	c0.5-0.11,0.62,0.09,0.53,0.21c-0.35,0.47-2,1.89-2,1.89l-11.47,9.5l0,0.01C27.55,35.26,27.43,35.45,27.41,35.67z"/>
<g id="XMLID_1434_" class="st3">
	<g id="XMLID_1436_" class="st4">
		<rect id="XMLID_1438_" x="22.52" y="27.93" width="5.12" height="16.54"/>
		<path id="XMLID_1437_" d="M25.06,25.76c1.67,0,3.03-1.37,3.03-3.05c0-1.69-1.36-3.05-3.03-3.05c-1.67,0-3.03,1.37-3.03,3.05
			C22.03,24.4,23.38,25.76,25.06,25.76z"/>
	</g>
	<path id="XMLID_1435_" class="st4" d="M35.83,35.79c0-2.33,1.07-3.71,3.12-3.71c1.88,0,2.79,1.33,2.79,3.71c0,2.38,0,8.68,0,8.68
		h5.1c0,0,0-6.04,0-10.47c0-4.43-2.51-6.57-6.02-6.57c-3.51,0-4.99,2.73-4.99,2.73v-2.23h-4.91v16.54h4.91
		C35.83,44.47,35.83,38.34,35.83,35.79z"/>
</g>
<g>
	<path d="M49.82,24.43c-0.4-1.51-1.58-2.7-3.09-3.11c-2.72-0.73-13.64-0.73-13.64-0.73s-10.92,0-13.64,0.73
		c-1.5,0.4-2.69,1.59-3.09,3.11c-0.73,2.74-0.73,8.46-0.73,8.46s0,5.72,0.73,8.46c0.4,1.51,1.58,2.7,3.09,3.11
		c2.72,0.73,13.64,0.73,13.64,0.73s10.92,0,13.64-0.73c1.5-0.4,2.69-1.59,3.09-3.11c0.73-2.74,0.73-8.46,0.73-8.46
		S50.55,27.17,49.82,24.43z M29.52,38.08V27.7l9.13,5.19L29.52,38.08z"/>
</g>
</svg>
